<svg xmlns="http://www.w3.org/2000/svg" xmlns:xlink="http://www.w3.org/1999/xlink" width="34" height="32" viewBox="0 0 34 32">
    <defs>
        <path id="a" d="M0 .84h34V32H0z"/>
    </defs>
    <g fill="none" fill-rule="evenodd">
        <g transform="translate(0 -.84)">
            <mask id="b" fill="#fff">
                <use xlink:href="#a"/>
            </mask>
            <path fill="#234CC0" d="M31.17 28.12c0 .58-.47 1.05-1.05 1.05H3.88c-.58 0-1.04-.47-1.04-1.05V8.97c0-.58.46-1.05 1.04-1.05h26.24c.58 0 1.05.47 1.05 1.05v19.15zm.4-27.28H2.43C1.09.84 0 1.93 0 3.27v26.3C0 30.91 1.09 32 2.43 32h29.14c1.34 0 2.43-1.09 2.43-2.43V3.27C34 1.93 32.91.84 31.57.84z" mask="url(#b)"/>
        </g>
        <path fill="#F85149" d="M8.918 15.563l-.022.022a.848.848 0 0 1-1.196-.001l-2.254-2.255a.847.847 0 0 1 0-1.197l2.268-2.268a.849.849 0 0 1 1.182-.016l.014.014c.351.332.353.89.003 1.225l-1.692 1.624 1.69 1.644c.34.331.342.875.007 1.208M12 15.543l-.042-.044a.847.847 0 0 1 .034-1.195l1.681-1.594L12 11.078a.847.847 0 1 1 1.19-1.204l2.257 2.258a.846.846 0 0 1 0 1.197l-2.233 2.234a.847.847 0 0 1-1.214-.02"/>
        <path fill="#234CC0" d="M24.091 20.86H5.842a.644.644 0 0 1-.644-.644v-1.293c0-.355.29-.643.644-.643h18.25c.354 0 .643.288.643.643v1.293a.644.644 0 0 1-.644.644M28.094 25.89H5.906a.708.708 0 0 1-.708-.707v-1.166c0-.391.318-.707.708-.707h22.188c.391 0 .707.316.707.707v1.166a.706.706 0 0 1-.707.707"/>
    </g>
</svg>
