<svg xmlns="http://www.w3.org/2000/svg" xmlns:xlink="http://www.w3.org/1999/xlink" width="104" height="104" viewBox="0 0 104 104">
    <defs>
        <path id="a" d="M0 1.734h98.8V67.6H0z"/>
    </defs>
    <g fill="none" fill-rule="evenodd">
        <path fill="#234CC0" d="M75.748 49.492L62.28 38.717a1.35 1.35 0 0 0-1.427-.16 1.35 1.35 0 0 0-.76 1.213V57.28a1.343 1.343 0 0 0 1.345 1.347c.4 0 .79-.18 1.05-.505l4.982-6.23h7.436a1.35 1.35 0 0 0 .842-2.4"/>
        <g transform="translate(2.6 16.467)">
            <mask id="b" fill="#fff">
                <use xlink:href="#a"/>
            </mask>
            <path fill="#234CC0" d="M19.986 9.967h58.83a3.517 3.517 0 0 1 3.518 3.517l.005 34.13a3.515 3.515 0 0 1-3.515 3.518H19.986a3.517 3.517 0 0 1-3.52-3.517v-34.13a3.52 3.52 0 0 1 3.52-3.518zm-3.52-8.235A8.234 8.234 0 0 0 8.23 9.967v41.165c0 3.851 2.657 7.093 6.232 7.988.154.039.135.247-.02.247H1.39A1.39 1.39 0 0 0 0 60.755v5.455c0 .77.623 1.39 1.39 1.39h96.018a1.39 1.39 0 0 0 1.391-1.39v-5.455c0-.767-.62-1.388-1.39-1.388h-13.05c-.159 0-.174-.208-.023-.247 3.575-.895 6.23-4.137 6.23-7.988V9.967a8.233 8.233 0 0 0-8.235-8.235H16.465z" mask="url(#b)"/>
        </g>
        <path fill="#F85149" d="M52.635 36.343c-.785 0-1.474.315-2.038.773-1.362-.338-2.75-.56-4.17-.56-8.801 0-16.076 6.6-17.176 15.11-.796.597-1.342 1.505-1.342 2.576a3.284 3.284 0 0 0 3.287 3.28 3.283 3.283 0 0 0 3.284-3.28c0-1.09-.562-2.005-1.378-2.603 1.081-6.398 6.624-11.297 13.325-11.297 1.073 0 2.124.167 3.15.41.464 1.257 1.644 2.162 3.058 2.162a3.286 3.286 0 0 0 0-6.57"/>
    </g>
</svg>
