<svg xmlns="http://www.w3.org/2000/svg" xmlns:xlink="http://www.w3.org/1999/xlink" width="38" height="26" viewBox="0 0 38 26">
    <defs>
        <path id="a" d="M0 .667h38V26H0z"/>
    </defs>
    <g fill="none" fill-rule="evenodd">
        <path fill="#80828C" d="M28.134 12.035l-5.18-4.144a.52.52 0 0 0-.841.405v6.734a.517.517 0 0 0 .921.324l1.916-2.396h2.86a.519.519 0 0 0 .324-.923" opacity=".3"/>
        <g transform="translate(0 -.667)">
            <mask id="b" fill="#fff">
                <use xlink:href="#a"/>
            </mask>
            <path fill="#80828C" d="M7.687 3.833h22.627c.747 0 1.353.605 1.353 1.353l.002 13.127c0 .748-.605 1.353-1.352 1.353H7.687a1.353 1.353 0 0 1-1.354-1.353V5.186c0-.747.606-1.353 1.354-1.353zM6.333.666a3.167 3.167 0 0 0-3.167 3.167v15.833a3.172 3.172 0 0 0 2.397 3.072c.059.015.052.095-.008.095H.535a.535.535 0 0 0-.535.534v2.098c0 .296.24.535.535.535h36.93a.534.534 0 0 0 .535-.535v-2.098a.534.534 0 0 0-.535-.534h-5.02c-.06 0-.066-.08-.008-.095a3.171 3.171 0 0 0 2.396-3.072V3.833A3.166 3.166 0 0 0 31.666.666H6.333z" mask="url(#b)" opacity=".3"/>
        </g>
        <path fill="#80828C" d="M19.244 6.978a1.24 1.24 0 0 0-.784.297 6.65 6.65 0 0 0-1.604-.215c-3.385 0-6.183 2.538-6.606 5.811-.306.23-.516.58-.516.991a1.263 1.263 0 0 0 2.527 0c0-.419-.216-.77-.53-1 .416-2.462 2.548-4.346 5.125-4.346.413 0 .817.064 1.212.158.178.483.632.831 1.176.831a1.264 1.264 0 0 0 0-2.527" opacity=".3"/>
    </g>
</svg>
