<svg xmlns="http://www.w3.org/2000/svg" xmlns:xlink="http://www.w3.org/1999/xlink" width="34" height="32" viewBox="0 0 34 32">
    <defs>
        <path id="a" d="M0 .84h34V32H0z"/>
    </defs>
    <g fill="none" fill-rule="evenodd">
        <g transform="translate(0 -.84)">
            <mask id="b" fill="#fff">
                <use xlink:href="#a"/>
            </mask>
            <path fill="#234CC0" d="M31.17 28.12c0 .58-.47 1.05-1.05 1.05H3.88c-.58 0-1.04-.47-1.04-1.05V8.97c0-.58.46-1.05 1.04-1.05h26.24c.58 0 1.05.47 1.05 1.05v19.15zm.4-27.28H2.43C1.09.84 0 1.93 0 3.27v26.3C0 30.91 1.09 32 2.43 32h29.14c1.34 0 2.43-1.09 2.43-2.43V3.27C34 1.93 32.91.84 31.57.84z" mask="url(#b)"/>
        </g>
        <path fill="#234CC0" d="M18.419 10.616c-.782 0-1.417.635-1.417 1.417v11.333c0 .782.635 1.417 1.417 1.417h8.5c.782 0 1.417-.635 1.417-1.417V12.033c0-.782-.635-1.417-1.417-1.417h-8.5z"/>
        <path fill="#F85149" d="M13.394 24.36H6.41a.776.776 0 0 1-.777-.776v-1.282c0-.428.348-.775.777-.775h6.983c.429 0 .776.347.776.775v1.282a.775.775 0 0 1-.776.775M13.394 19.116H6.41a.777.777 0 0 1-.777-.776v-1.28c0-.429.348-.777.777-.777h6.983c.429 0 .776.348.776.776v1.281a.776.776 0 0 1-.776.776M13.394 13.872H6.41a.776.776 0 0 1-.777-.776v-1.281c0-.428.348-.776.777-.776h6.983c.429 0 .776.348.776.776v1.281a.775.775 0 0 1-.776.776"/>
    </g>
</svg>
