<svg xmlns="http://www.w3.org/2000/svg" width="104" height="104" viewBox="0 0 104 104">
    <g fill="none" fill-rule="evenodd">
        <path fill="#80828C" d="M78.025 8.45H27.36a3.96 3.96 0 0 0-3.96 3.96v79.832a3.923 3.923 0 0 0 3.926 3.926h50.732a3.922 3.922 0 0 0 3.926-3.926V12.41a3.96 3.96 0 0 0-3.96-3.96" opacity=".3"/>
        <path fill="#FFF" d="M44.81 32.512h30.773v-9.1H44.81zM38.901 27.962a4.548 4.548 0 0 1-4.55 4.55 4.551 4.551 0 1 1 4.55-4.55M57.564 85.857a4.868 4.868 0 0 1-4.849 4.9h-.026a4.874 4.874 0 0 1-4.868-4.848 4.873 4.873 0 0 1 4.849-4.901 4.864 4.864 0 0 1 4.894 4.85" opacity=".8"/>
    </g>
</svg>
