<svg xmlns="http://www.w3.org/2000/svg" xmlns:xlink="http://www.w3.org/1999/xlink" width="34" height="35" viewBox="0 0 34 35">
    <defs>
        <path id="a" d="M0 0h34v32H0z"/>
    </defs>
    <g fill="none" fill-rule="evenodd">
        <g transform="translate(0 3)">
            <mask id="b" fill="#fff">
                <use xlink:href="#a"/>
            </mask>
            <path fill="#80828C" d="M31.205 32H2.795A2.795 2.795 0 0 1 0 29.205V2.795A2.795 2.795 0 0 1 2.795 0h29.452C33.215 0 34 .785 34 1.753v27.452A2.796 2.796 0 0 1 31.205 32" mask="url(#b)" opacity=".3"/>
        </g>
        <path fill="#D8D9DC" d="M8.425 8.898c.844 0 1.5-.73 1.5-1.61V1.59C9.926.713 9.27 0 8.426 0h-.85c-.843 0-1.501.713-1.501 1.59v5.698c0 .88.658 1.61 1.5 1.61h.85zM26.425 8.898c.844 0 1.5-.73 1.5-1.61V1.59c0-.876-.656-1.589-1.5-1.589h-.85c-.843 0-1.501.713-1.501 1.59v5.698c0 .88.658 1.61 1.5 1.61h.85z"/>
        <g fill="#FFF" opacity=".8">
            <path d="M6.667 14h1.666c.92 0 1.667.747 1.667 1.667v1.666C10 18.253 9.253 19 8.333 19H6.667C5.747 19 5 18.253 5 17.333v-1.666C5 14.747 5.747 14 6.667 14M6.667 24h1.666c.92 0 1.667.747 1.667 1.667v1.666C10 28.253 9.253 29 8.333 29H6.667C5.747 29 5 28.253 5 27.333v-1.666C5 24.747 5.747 24 6.667 24M25.667 14h1.666c.92 0 1.667.747 1.667 1.667v1.666c0 .92-.747 1.667-1.667 1.667h-1.666c-.92 0-1.667-.747-1.667-1.667v-1.666c0-.92.747-1.667 1.667-1.667M25.667 24h1.666c.92 0 1.667.747 1.667 1.667v1.666c0 .92-.747 1.667-1.667 1.667h-1.666c-.92 0-1.667-.747-1.667-1.667v-1.666c0-.92.747-1.667 1.667-1.667M17.833 14c.92 0 1.667.747 1.667 1.667v1.666c0 .92-.747 1.667-1.667 1.667h-1.666c-.92 0-1.667-.747-1.667-1.667v-1.666c0-.92.747-1.667 1.667-1.667h1.666zM17.833 24c.92 0 1.667.747 1.667 1.667v1.666c0 .92-.747 1.667-1.667 1.667h-1.666c-.92 0-1.667-.747-1.667-1.667v-1.666c0-.92.747-1.667 1.667-1.667h1.666z"/>
        </g>
    </g>
</svg>
