<svg xmlns="http://www.w3.org/2000/svg" width="36" height="36" viewBox="0 0 36 36">
    <g fill="none" fill-rule="nonzero">
        <path fill="#234CC0" d="M18 0C8.059 0 0 8.059 0 18s8.059 18 18 18 18-8.059 18-18C35.99 8.063 27.937.01 18 0z"/>
        <path fill="#F85149" d="M18 6.274a1.543 1.543 0 1 1 0 3.086 1.543 1.543 0 0 1 0-3.086zM7.82 19.543a1.543 1.543 0 1 1 0-3.086 1.543 1.543 0 0 1 0 3.086zM18 29.726a1.543 1.543 0 1 1 0-3.086 1.543 1.543 0 0 1 0 3.086z"/>
        <path fill="#FFF" d="M24.245 13.897l-3.567 3.567-.022-.022a2.792 2.792 0 1 1-5.268-.177l-.033.033-4.94-4.937a1.177 1.177 0 0 1 1.663-1.664l4.941 4.948-.033.033a2.777 2.777 0 0 1 1.837-.062l-.022-.022 3.567-3.567A1.325 1.325 0 1 1 24.24 13.9l.004-.003z"/>
        <path fill="#F85149" d="M28.18 19.543a1.543 1.543 0 1 1 0-3.086 1.543 1.543 0 0 1 0 3.086z"/>
        <path fill="#234CC0" d="M18.977 18.276a.977.977 0 1 1-1.954 0 .977.977 0 0 1 1.954 0z"/>
    </g>
</svg>
