<svg xmlns="http://www.w3.org/2000/svg" xmlns:xlink="http://www.w3.org/1999/xlink" width="104" height="104" viewBox="0 0 104 104">
    <defs>
        <path id="a" d="M0 0h88.4v88.4H0z"/>
    </defs>
    <g fill="none" fill-rule="evenodd">
        <g transform="translate(7.8 7.8)">
            <mask id="b" fill="#fff">
                <use xlink:href="#a"/>
            </mask>
            <path fill="#80828C" d="M79.155 88.4H9.244C4.137 88.4 0 84.26 0 79.154V9.243A9.243 9.243 0 0 1 9.244 0h69.911c5.107 0 9.246 4.14 9.246 9.243v69.911a9.245 9.245 0 0 1-9.246 9.246" mask="url(#b)" opacity=".3"/>
        </g>
        <path fill="#FFF" d="M33.8 52a7.8 7.8 0 0 1-7.8 7.8 7.8 7.8 0 0 1-7.8-7.8 7.8 7.8 0 0 1 7.8-7.8 7.8 7.8 0 0 1 7.8 7.8M59.8 52a7.8 7.8 0 0 1-7.8 7.8 7.8 7.8 0 0 1-7.8-7.8 7.8 7.8 0 0 1 7.8-7.8 7.8 7.8 0 0 1 7.8 7.8M85.8 52a7.8 7.8 0 0 1-7.8 7.8 7.8 7.8 0 0 1-7.8-7.8 7.8 7.8 0 0 1 7.8-7.8 7.8 7.8 0 0 1 7.8 7.8" opacity=".8"/>
    </g>
</svg>
